<mxfile host="65bd71144e">
    <diagram id="__T-9EWK7PDDJmBquOIG" name="Page-1">
        <mxGraphModel dx="642" dy="714" grid="1" gridSize="10" guides="1" tooltips="1" connect="1" arrows="1" fold="1" page="1" pageScale="1" pageWidth="850" pageHeight="1100" math="0" shadow="0">
            <root>
                <mxCell id="0"/>
                <mxCell id="1" parent="0"/>
                <mxCell id="9" value="price p" style="edgeStyle=none;html=1;" edge="1" parent="1" source="2" target="6">
                    <mxGeometry relative="1" as="geometry"/>
                </mxCell>
                <mxCell id="2" value="" style="sketch=0;aspect=fixed;html=1;points=[];align=center;image;fontSize=12;image=img/lib/mscae/Data_Factory.svg;" vertex="1" parent="1">
                    <mxGeometry x="220" y="135" width="50" height="50" as="geometry"/>
                </mxCell>
                <mxCell id="3" value="" style="outlineConnect=0;dashed=0;verticalLabelPosition=bottom;verticalAlign=top;align=center;html=1;shape=mxgraph.aws3.users;fillColor=#ACACAC;gradientColor=none;" vertex="1" parent="1">
                    <mxGeometry x="227" y="175" width="36" height="33" as="geometry"/>
                </mxCell>
                <mxCell id="4" value="" style="outlineConnect=0;dashed=0;verticalLabelPosition=bottom;verticalAlign=top;align=center;html=1;shape=mxgraph.aws3.users;fillColor=#ACACAC;gradientColor=none;" vertex="1" parent="1">
                    <mxGeometry x="172" y="80" width="36" height="33" as="geometry"/>
                </mxCell>
                <mxCell id="5" value="Unemployed workers" style="text;strokeColor=none;align=center;fillColor=none;html=1;verticalAlign=middle;whiteSpace=wrap;rounded=0;" vertex="1" parent="1">
                    <mxGeometry x="160" y="50" width="60" height="30" as="geometry"/>
                </mxCell>
                <mxCell id="6" value="" style="image;html=1;image=img/lib/clip_art/finance/Shopping_Cart_128x128.png" vertex="1" parent="1">
                    <mxGeometry x="50" y="130" width="60" height="60" as="geometry"/>
                </mxCell>
                <mxCell id="10" value="" style="edgeStyle=none;orthogonalLoop=1;jettySize=auto;html=1;shape=arrow;" edge="1" parent="1">
                    <mxGeometry width="80" relative="1" as="geometry">
                        <mxPoint x="300" y="159.5" as="sourcePoint"/>
                        <mxPoint x="380" y="159.5" as="targetPoint"/>
                    </mxGeometry>
                </mxCell>
                <mxCell id="11" value="price p" style="edgeStyle=none;html=1;" edge="1" parent="1" source="12" target="16">
                    <mxGeometry relative="1" as="geometry"/>
                </mxCell>
                <mxCell id="12" value="" style="sketch=0;aspect=fixed;html=1;points=[];align=center;image;fontSize=12;image=img/lib/mscae/Data_Factory.svg;" vertex="1" parent="1">
                    <mxGeometry x="580" y="135" width="50" height="50" as="geometry"/>
                </mxCell>
                <mxCell id="13" value="" style="outlineConnect=0;dashed=0;verticalLabelPosition=bottom;verticalAlign=top;align=center;html=1;shape=mxgraph.aws3.users;fillColor=#ACACAC;gradientColor=none;" vertex="1" parent="1">
                    <mxGeometry x="587" y="175" width="36" height="33" as="geometry"/>
                </mxCell>
                <mxCell id="14" value="" style="outlineConnect=0;dashed=0;verticalLabelPosition=bottom;verticalAlign=top;align=center;html=1;shape=mxgraph.aws3.users;fillColor=#ACACAC;gradientColor=none;" vertex="1" parent="1">
                    <mxGeometry x="580" y="190" width="36" height="33" as="geometry"/>
                </mxCell>
                <mxCell id="16" value="" style="image;html=1;image=img/lib/clip_art/finance/Shopping_Cart_128x128.png" vertex="1" parent="1">
                    <mxGeometry x="410" y="130" width="60" height="60" as="geometry"/>
                </mxCell>
                <mxCell id="17" value="" style="image;html=1;image=img/lib/clip_art/finance/Shopping_Cart_128x128.png" vertex="1" parent="1">
                    <mxGeometry x="420" y="148" width="60" height="60" as="geometry"/>
                </mxCell>
                <mxCell id="18" value="Increased demand" style="text;strokeColor=none;align=center;fillColor=none;html=1;verticalAlign=middle;whiteSpace=wrap;rounded=0;" vertex="1" parent="1">
                    <mxGeometry x="410" y="100" width="60" height="30" as="geometry"/>
                </mxCell>
            </root>
        </mxGraphModel>
    </diagram>
</mxfile>